<?xml version="1.0" encoding="utf-8"?>
<!-- Generator: Adobe Illustrator 22.0.1, SVG Export Plug-In . SVG Version: 6.00 Build 0)  -->
<svg version="1.1" id="Layer_1" xmlns="http://www.w3.org/2000/svg" xmlns:xlink="http://www.w3.org/1999/xlink" x="0px" y="0px"
	 viewBox="0 0 800 800" style="enable-background:new 0 0 800 800;" xml:space="preserve">
<style type="text/css">
    
	.st0, .st1, .st2 {
    
        fill:none;
    
        stroke-dasharray:4.9798,7.9676;
    
        stroke:url(#grad-hot);
    
  
        stroke-dashoffset:90;
        animation: draw 3s infinite linear;
        animation-direction: reverse;
    }
    
    @keyframes draw {
      to {
        stroke-dashoffset: 0;
      }
    }
</style>
<defs>
    <linearGradient id="grad-hot" x1="0%" y1="0%" x2="100%" y2="0%">
      <stop offset="0%" style="stop-color:rgb(255,49,49);stop-opacity:1" />
      <stop offset="100%" style="stop-color:rgb(69,219,248);stop-opacity:1" />
    </linearGradient>
</defs>
<defs>
    <linearGradient id="grad-cold" x1="0%" y1="0%" x2="100%" y2="0%">
      <stop offset="0%" style="stop-color:rgb(255,255,255);stop-opacity:1" />
      <stop offset="100%" style="stop-color:rgb(181,203,244);stop-opacity:1" />
    </linearGradient>
</defs>

<path class="st0" d="M289.9-0.6c0,0,20.5,239.5,135.2,239.5"/>
<path class="st0" d="M316-0.7c0,0,8.6,234.7,109.3,233.6"/>
<path class="st1" d="M253.6,0.3c0,0,16.9,314.2,174.1,326.2"/>
<path class="st0" d="M223.8,0.7c0,0,24.7,331.5,201.6,331.5"/>
<path class="st0" d="M196.3-1.8c0,0,20.1,339.1,229.6,339.1"/>
<path class="st2" d="M40.8,21.7c0,0,117.2,377.8,389.3,408.9"/>
<path class="st2" d="M52.6,8.5c0,0,103.4,384,378.6,415.8"/>
<path class="st0" d="M342.4-0.1c0,0-1.7,226.5,82.8,226.5"/>
<path class="st0" d="M29,40.5c0,0,124,362.5,402.1,397.2"/>

</svg>
